<?xml version="1.0" encoding="UTF-8" standalone="no"?>
<!DOCTYPE svg PUBLIC "-//W3C//DTD SVG 1.1//EN"
 "http://www.w3.org/Graphics/SVG/1.1/DTD/svg11.dtd">
<!-- Generated by graphviz version 2.38.0 (20140413.2041)
 -->
<!-- Title: Functions Pages: 1 -->
<svg width="315pt" height="481pt"
 viewBox="0.00 0.00 314.50 481.00" xmlns="http://www.w3.org/2000/svg" xmlns:xlink="http://www.w3.org/1999/xlink">
<g id="graph0" class="graph" transform="scale(1 1) rotate(0) translate(4 477)">
<title>Functions</title>
<polygon fill="white" stroke="none" points="-4,4 -4,-477 310.5,-477 310.5,4 -4,4"/>
<!-- httpTrigger -->
<g id="node1" class="node"><title>httpTrigger</title>
<polygon fill="white" stroke="none" points="306.5,-473 3.5,-473 3.5,-415 306.5,-415 306.5,-473"/>
<polygon fill="none" stroke="black" points="12,-442 12,-469 299,-469 299,-442 12,-442"/>
<text text-anchor="start" x="111" y="-451.8" font-family="Segoe UI" font-size="14.00">HTTP Triggers</text>
<polygon fill="#bdd7e7" stroke="none" points="12,-419 12,-442 161,-442 161,-419 12,-419"/>
<polygon fill="none" stroke="black" points="12,-419 12,-442 161,-442 161,-419 12,-419"/>
<text text-anchor="start" x="18" y="-429" font-family="Segoe UI" font-weight="bold" font-size="10.00">/api/cs&#45;exponential&#45;start&#45;test</text>
<polygon fill="#bdd7e7" stroke="none" points="161,-419 161,-442 299,-442 299,-419 161,-419"/>
<polygon fill="none" stroke="black" points="161,-419 161,-442 299,-442 299,-419 161,-419"/>
<text text-anchor="start" x="167" y="-429" font-family="Segoe UI" font-weight="bold" font-size="10.00">/api/cs&#45;exponential&#45;results</text>
</g>
<!-- cs&#45;exponential&#45;start&#45;test -->
<g id="node2" class="node"><title>cs&#45;exponential&#45;start&#45;test</title>
<polygon fill="#eff3ff" stroke="black" points="166,-368 0,-368 0,-332 172,-332 172,-362 166,-368"/>
<polyline fill="none" stroke="black" points="166,-368 166,-362 "/>
<polyline fill="none" stroke="black" points="172,-362 166,-362 "/>
<text text-anchor="middle" x="86" y="-346.3" font-family="Segoe UI" font-size="14.00">cs&#45;exponential&#45;start&#45;test</text>
</g>
<!-- httpTrigger&#45;&gt;cs&#45;exponential&#45;start&#45;test -->
<g id="edge1" class="edge"><title>httpTrigger:cs&#45;exponential&#45;start&#45;test&#45;&gt;cs&#45;exponential&#45;start&#45;test</title>
<path fill="none" stroke="black" d="M86,-418C86,-404.865 86,-390.282 86,-378.083"/>
<polygon fill="black" stroke="black" points="86,-368.074 90.5001,-378.074 86,-373.074 86.0001,-378.074 86.0001,-378.074 86.0001,-378.074 86,-373.074 81.5001,-378.074 86,-368.074 86,-368.074"/>
<text text-anchor="middle" x="107" y="-389" font-family="Segoe UI" font-size="10.00"> &#160;&#160;Trigger</text>
</g>
<!-- cs&#45;exponential&#45;results -->
<g id="node4" class="node"><title>cs&#45;exponential&#45;results</title>
<polygon fill="#eff3ff" stroke="black" points="271.5,-36 120.5,-36 120.5,-0 277.5,-0 277.5,-30 271.5,-36"/>
<polyline fill="none" stroke="black" points="271.5,-36 271.5,-30 "/>
<polyline fill="none" stroke="black" points="277.5,-30 271.5,-30 "/>
<text text-anchor="middle" x="199" y="-14.3" font-family="Segoe UI" font-size="14.00">cs&#45;exponential&#45;results</text>
</g>
<!-- httpTrigger&#45;&gt;cs&#45;exponential&#45;results -->
<g id="edge3" class="edge"><title>httpTrigger:cs&#45;exponential&#45;results&#45;&gt;cs&#45;exponential&#45;results</title>
<path fill="none" stroke="black" d="M230,-418C230,-388.222 230,-380.778 230,-351 230,-351 230,-351 230,-100 230,-80.7974 222.307,-60.6251 214.585,-45.2148"/>
<polygon fill="black" stroke="black" points="209.842,-36.2864 218.508,-43.0066 212.188,-40.702 214.534,-45.1177 214.534,-45.1177 214.534,-45.1177 212.188,-40.702 210.56,-47.2288 209.842,-36.2864 209.842,-36.2864"/>
<text text-anchor="middle" x="251" y="-223" font-family="Segoe UI" font-size="10.00"> &#160;&#160;Trigger</text>
</g>
<!-- Queue &#45; exponentialsample &#45; AzureWebJobsStorage -->
<g id="node3" class="node"><title>Queue &#45; exponentialsample &#45; AzureWebJobsStorage</title>
<polygon fill="#2171b5" stroke="black" points="115.5,-285 56.5,-285 56.5,-249 115.5,-249 115.5,-285"/>
<text text-anchor="middle" x="86" y="-263.3" font-family="Segoe UI" font-size="14.00" fill="white">Queue</text>
</g>
<!-- cs&#45;exponential&#45;start&#45;test&#45;&gt;Queue &#45; exponentialsample &#45; AzureWebJobsStorage -->
<g id="edge2" class="edge"><title>cs&#45;exponential&#45;start&#45;test&#45;&gt;Queue &#45; exponentialsample &#45; AzureWebJobsStorage</title>
<path fill="none" stroke="black" d="M86,-331.822C86,-321.19 86,-307.306 86,-295.204"/>
<polygon fill="black" stroke="black" points="82,-285.153 90,-285.153 90.0001,-293.153 82.0001,-293.153 82,-285.153"/>
<polyline fill="none" stroke="black" points="86.0001,-293.153 86.0001,-295.153 "/>
<text text-anchor="middle" x="106" y="-306" font-family="Segoe UI" font-size="10.00"> &#160;&#160;Output</text>
</g>
<!-- cs&#45;exponential&#45;scale -->
<g id="node6" class="node"><title>cs&#45;exponential&#45;scale</title>
<polygon fill="#eff3ff" stroke="black" points="195.5,-202 54.5,-202 54.5,-166 201.5,-166 201.5,-196 195.5,-202"/>
<polyline fill="none" stroke="black" points="195.5,-202 195.5,-196 "/>
<polyline fill="none" stroke="black" points="201.5,-196 195.5,-196 "/>
<text text-anchor="middle" x="128" y="-180.3" font-family="Segoe UI" font-size="14.00">cs&#45;exponential&#45;scale</text>
</g>
<!-- Queue &#45; exponentialsample &#45; AzureWebJobsStorage&#45;&gt;cs&#45;exponential&#45;scale -->
<g id="edge5" class="edge"><title>Queue &#45; exponentialsample &#45; AzureWebJobsStorage&#45;&gt;cs&#45;exponential&#45;scale</title>
<path fill="none" stroke="black" d="M76.7976,-248.618C73.3662,-239.661 71.3147,-228.801 76,-220 78.1877,-215.89 81.0964,-212.177 84.424,-208.842"/>
<polygon fill="black" stroke="black" points="92.2608,-202.139 87.5865,-212.059 88.4611,-205.389 84.6615,-208.639 84.6615,-208.639 84.6615,-208.639 88.4611,-205.389 81.7364,-205.219 92.2608,-202.139 92.2608,-202.139"/>
<text text-anchor="middle" x="97" y="-223" font-family="Segoe UI" font-size="10.00"> &#160;&#160;Trigger</text>
</g>
<!-- Table &#45; exponentialtelemetry &#45; AzureWebJobsStorage -->
<g id="node5" class="node"><title>Table &#45; exponentialtelemetry &#45; AzureWebJobsStorage</title>
<polygon fill="#2171b5" stroke="black" points="179,-119 125,-119 125,-83 179,-83 179,-119"/>
<text text-anchor="middle" x="152" y="-97.3" font-family="Segoe UI" font-size="14.00" fill="white">Table</text>
</g>
<!-- Table &#45; exponentialtelemetry &#45; AzureWebJobsStorage&#45;&gt;cs&#45;exponential&#45;results -->
<g id="edge4" class="edge"><title>Table &#45; exponentialtelemetry &#45; AzureWebJobsStorage&#45;&gt;cs&#45;exponential&#45;results</title>
<path fill="none" stroke="black" d="M161.967,-82.822C168.635,-71.3312 177.507,-56.0409 184.896,-43.3072"/>
<ellipse fill="black" stroke="black" cx="187.039" cy="-39.613" rx="4.00002" ry="4.00002"/>
<text text-anchor="middle" x="194.5" y="-57" font-family="Segoe UI" font-size="10.00"> &#160;&#160;Input</text>
</g>
<!-- cs&#45;exponential&#45;scale&#45;&gt;Queue &#45; exponentialsample &#45; AzureWebJobsStorage -->
<g id="edge6" class="edge"><title>cs&#45;exponential&#45;scale&#45;&gt;Queue &#45; exponentialsample &#45; AzureWebJobsStorage</title>
<path fill="none" stroke="black" d="M126.414,-202.337C125.067,-211.282 122.581,-222.144 118,-231 116.18,-234.519 113.913,-237.952 111.432,-241.207"/>
<polygon fill="black" stroke="black" points="108.012,-251.459 101.899,-246.298 107.06,-240.185 113.172,-245.346 108.012,-251.459"/>
<polyline fill="none" stroke="black" points="110.116,-242.766 111.406,-241.237 "/>
<text text-anchor="middle" x="143" y="-223" font-family="Segoe UI" font-size="10.00"> &#160;&#160;Output</text>
</g>
<!-- cs&#45;exponential&#45;scale&#45;&gt;Table &#45; exponentialtelemetry &#45; AzureWebJobsStorage -->
<g id="edge7" class="edge"><title>cs&#45;exponential&#45;scale&#45;&gt;Table &#45; exponentialtelemetry &#45; AzureWebJobsStorage</title>
<path fill="none" stroke="black" d="M133.09,-165.822C136.272,-155.083 140.437,-141.025 144.048,-128.837"/>
<polygon fill="black" stroke="black" points="143.082,-118.017 150.753,-120.29 148.48,-127.96 140.81,-125.687 143.082,-118.017"/>
<polyline fill="none" stroke="black" points="144.645,-126.824 144.077,-128.741 "/>
<text text-anchor="middle" x="162" y="-140" font-family="Segoe UI" font-size="10.00"> &#160;&#160;Output</text>
</g>
</g>
</svg>
