<?xml version="1.0" encoding="UTF-8" standalone="no"?>
<!DOCTYPE svg PUBLIC "-//W3C//DTD SVG 1.1//EN"
 "http://www.w3.org/Graphics/SVG/1.1/DTD/svg11.dtd">
<!-- Generated by graphviz version 2.38.0 (20140413.2041)
 -->
<!-- Title: Functions Pages: 1 -->
<svg width="268pt" height="398pt"
 viewBox="0.00 0.00 267.50 398.00" xmlns="http://www.w3.org/2000/svg" xmlns:xlink="http://www.w3.org/1999/xlink">
<g id="graph0" class="graph" transform="scale(1 1) rotate(0) translate(4 394)">
<title>Functions</title>
<polygon fill="white" stroke="none" points="-4,4 -4,-394 263.5,-394 263.5,4 -4,4"/>
<!-- GenerateCard -->
<g id="node1" class="node"><title>GenerateCard</title>
<polygon fill="#eff3ff" stroke="black" points="175,-119 77,-119 77,-83 181,-83 181,-113 175,-119"/>
<polyline fill="none" stroke="black" points="175,-119 175,-113 "/>
<polyline fill="none" stroke="black" points="181,-113 175,-113 "/>
<text text-anchor="middle" x="129" y="-97.3" font-family="Segoe UI" font-size="14.00">GenerateCard</text>
</g>
<!-- Blob &#45; %output&#45;container%/{BlobName} &#45; AzureWebJobsStorage -->
<g id="node4" class="node"><title>Blob &#45; %output&#45;container%/{BlobName} &#45; AzureWebJobsStorage</title>
<polygon fill="#2171b5" stroke="black" points="156,-36 102,-36 102,-0 156,-0 156,-36"/>
<text text-anchor="middle" x="129" y="-14.3" font-family="Segoe UI" font-size="14.00" fill="white">Blob</text>
</g>
<!-- GenerateCard&#45;&gt;Blob &#45; %output&#45;container%/{BlobName} &#45; AzureWebJobsStorage -->
<g id="edge3" class="edge"><title>GenerateCard&#45;&gt;Blob &#45; %output&#45;container%/{BlobName} &#45; AzureWebJobsStorage</title>
<path fill="none" stroke="black" d="M129,-82.822C129,-72.1903 129,-58.306 129,-46.2035"/>
<polygon fill="black" stroke="black" points="125,-36.1533 133,-36.1532 133,-44.1532 125,-44.1533 125,-36.1533"/>
<polyline fill="none" stroke="black" points="129,-44.1533 129,-46.1533 "/>
<text text-anchor="middle" x="149" y="-57" font-family="Segoe UI" font-size="10.00"> &#160;&#160;Output</text>
</g>
<!-- Queue &#45; %input&#45;queue% &#45; AzureWebJobsStorage -->
<g id="node2" class="node"><title>Queue &#45; %input&#45;queue% &#45; AzureWebJobsStorage</title>
<polygon fill="#2171b5" stroke="black" points="116.5,-202 57.5,-202 57.5,-166 116.5,-166 116.5,-202"/>
<text text-anchor="middle" x="87" y="-180.3" font-family="Segoe UI" font-size="14.00" fill="white">Queue</text>
</g>
<!-- Queue &#45; %input&#45;queue% &#45; AzureWebJobsStorage&#45;&gt;GenerateCard -->
<g id="edge1" class="edge"><title>Queue &#45; %input&#45;queue% &#45; AzureWebJobsStorage&#45;&gt;GenerateCard</title>
<path fill="none" stroke="black" d="M89.0856,-165.688C90.6608,-156.75 93.3758,-145.887 98,-137 99.7516,-133.634 101.897,-130.33 104.235,-127.177"/>
<polygon fill="black" stroke="black" points="110.731,-119.249 107.874,-129.836 107.562,-123.117 104.393,-126.984 104.393,-126.984 104.393,-126.984 107.562,-123.117 100.912,-124.132 110.731,-119.249 110.731,-119.249"/>
<text text-anchor="middle" x="119" y="-140" font-family="Segoe UI" font-size="10.00"> &#160;&#160;Trigger</text>
</g>
<!-- Blob &#45; %input&#45;container%/{BlobName} &#45; AzureWebJobsStorage -->
<g id="node3" class="node"><title>Blob &#45; %input&#45;container%/{BlobName} &#45; AzureWebJobsStorage</title>
<polygon fill="#6baed6" stroke="black" points="189,-202 135,-202 135,-166 189,-166 189,-202"/>
<text text-anchor="middle" x="162" y="-180.3" font-family="Segoe UI" font-size="14.00">Blob</text>
</g>
<!-- Blob &#45; %input&#45;container%/{BlobName} &#45; AzureWebJobsStorage&#45;&gt;GenerateCard -->
<g id="edge2" class="edge"><title>Blob &#45; %input&#45;container%/{BlobName} &#45; AzureWebJobsStorage&#45;&gt;GenerateCard</title>
<path fill="none" stroke="black" d="M155.002,-165.822C150.364,-154.439 144.207,-139.326 139.049,-126.665"/>
<ellipse fill="black" stroke="black" cx="137.498" cy="-122.858" rx="4.00001" ry="4.00001"/>
<text text-anchor="middle" x="163.5" y="-140" font-family="Segoe UI" font-size="10.00"> &#160;&#160;Input</text>
</g>
<!-- RequestImageProcessing -->
<g id="node5" class="node"><title>RequestImageProcessing</title>
<polygon fill="#eff3ff" stroke="black" points="168,-285 0,-285 0,-249 174,-249 174,-279 168,-285"/>
<polyline fill="none" stroke="black" points="168,-285 168,-279 "/>
<polyline fill="none" stroke="black" points="174,-279 168,-279 "/>
<text text-anchor="middle" x="87" y="-263.3" font-family="Segoe UI" font-size="14.00">RequestImageProcessing</text>
</g>
<!-- RequestImageProcessing&#45;&gt;Queue &#45; %input&#45;queue% &#45; AzureWebJobsStorage -->
<g id="edge5" class="edge"><title>RequestImageProcessing&#45;&gt;Queue &#45; %input&#45;queue% &#45; AzureWebJobsStorage</title>
<path fill="none" stroke="black" d="M87,-248.822C87,-238.19 87,-224.306 87,-212.204"/>
<polygon fill="black" stroke="black" points="83,-202.153 91,-202.153 91.0001,-210.153 83.0001,-210.153 83,-202.153"/>
<polyline fill="none" stroke="black" points="87.0001,-210.153 87.0001,-212.153 "/>
<text text-anchor="middle" x="107" y="-223" font-family="Segoe UI" font-size="10.00"> &#160;&#160;Output</text>
</g>
<!-- httpTrigger -->
<g id="node6" class="node"><title>httpTrigger</title>
<polygon fill="white" stroke="none" points="249.5,-390 108.5,-390 108.5,-332 249.5,-332 249.5,-390"/>
<polygon fill="none" stroke="black" points="117,-359 117,-386 242,-386 242,-359 117,-359"/>
<text text-anchor="start" x="135" y="-368.8" font-family="Segoe UI" font-size="14.00">HTTP Triggers</text>
<polygon fill="#bdd7e7" stroke="none" points="117,-336 117,-359 169,-359 169,-336 117,-336"/>
<polygon fill="none" stroke="black" points="117,-336 117,-359 169,-359 169,-336 117,-336"/>
<text text-anchor="start" x="123" y="-346" font-family="Segoe UI" font-weight="bold" font-size="10.00">/api/foo</text>
<polygon fill="#bdd7e7" stroke="none" points="169,-336 169,-359 242,-359 242,-336 169,-336"/>
<polygon fill="none" stroke="black" points="169,-336 169,-359 242,-359 242,-336 169,-336"/>
<text text-anchor="start" x="175" y="-346" font-family="Segoe UI" font-weight="bold" font-size="10.00">/api/Settings</text>
</g>
<!-- httpTrigger&#45;&gt;RequestImageProcessing -->
<g id="edge4" class="edge"><title>httpTrigger:RequestImageProcessing&#45;&gt;RequestImageProcessing</title>
<path fill="none" stroke="black" d="M143,-335C143,-318.052 132.32,-303.128 120.288,-291.694"/>
<polygon fill="black" stroke="black" points="112.705,-285.038 123.19,-288.253 116.463,-288.337 120.221,-291.635 120.221,-291.635 120.221,-291.635 116.463,-288.337 117.252,-295.017 112.705,-285.038 112.705,-285.038"/>
<text text-anchor="middle" x="159" y="-306" font-family="Segoe UI" font-size="10.00"> &#160;&#160;Trigger</text>
</g>
<!-- Settings -->
<g id="node7" class="node"><title>Settings</title>
<polygon fill="#eff3ff" stroke="black" points="253.5,-285 192.5,-285 192.5,-249 259.5,-249 259.5,-279 253.5,-285"/>
<polyline fill="none" stroke="black" points="253.5,-285 253.5,-279 "/>
<polyline fill="none" stroke="black" points="259.5,-279 253.5,-279 "/>
<text text-anchor="middle" x="226" y="-263.3" font-family="Segoe UI" font-size="14.00">Settings</text>
</g>
<!-- httpTrigger&#45;&gt;Settings -->
<g id="edge6" class="edge"><title>httpTrigger:Settings&#45;&gt;Settings</title>
<path fill="none" stroke="black" d="M206,-335C206,-321.343 209.862,-306.751 214.192,-294.682"/>
<polygon fill="black" stroke="black" points="217.865,-285.214 218.444,-296.165 216.057,-289.875 214.249,-294.537 214.249,-294.537 214.249,-294.537 216.057,-289.875 210.053,-292.91 217.865,-285.214 217.865,-285.214"/>
<text text-anchor="middle" x="232" y="-306" font-family="Segoe UI" font-size="10.00"> &#160;&#160;Trigger</text>
</g>
</g>
</svg>
